# xmcd CD database file
#
# Track frame offsets:
#	150
#	15276
#	28185
#	39450
#	52417
#	66068
#	78320
#	92226
#	104128
#	119431
#	134814
#	148790
#	164861
#	178681
#	194675
#
# Disc length: 2746 seconds
#
# Revision: 3
# Processed by: cddbd v1.5.1PL0 Copyright (c) Steve Scherf et al.
# Submitted via: CDex 1.51
#
DISCID=eb0ab80f
DTITLE=Hank Williams, Jr. - The Complete Hank Williams, Jr.
DYEAR=1900
DGENRE=Country
TTITLE0=If The South Woulda Won
TTITLE1=That Old Wheel
TTITLE2=Early In The Morning And Late At Night
TTITLE3=There's A Tear In My Beer
TTITLE4=Finders Are Keepers
TTITLE5=T'Ain't Nobody Bizness
TTITLE6=Good Friends, Good Whiskey, Good Lovin'
TTITLE7=Don't Give Us A Reason
TTITLE8=If It Will It Will
TTITLE9=Angels Are Hard To Find
TTITLE10=Come On Over To The Country
TTITLE11=Everything Comes Down To Money And Love
TTITLE12=I Ain't Goin' Peacefully
TTITLE13=Hog Wild
TTITLE14=I'll Never Get Out Of This World Alive
EXTD=
EXTT0=
EXTT1=
EXTT2=
EXTT3=
EXTT4=
EXTT5=
EXTT6=
EXTT7=
EXTT8=
EXTT9=
EXTT10=
EXTT11=
EXTT12=
EXTT13=
EXTT14=
PLAYORDER=
